# xmcd
#
# Track frame offsets:
#	150
#	19729
#	32418
#	51229
#	68682
#	84418
#	100134
#	111960
#	126257
#	138013
#	152637
#	165729
#	183746
#	197519
#	211739
#	225889
#	239645
#	256339
#	274432
#	289104
#	302413
#	312548
#
# Disc length: 4309 seconds
# Revision: 0
# Processed by: cddbd v1.5.2PL0 Copyright (c) Steve Scherf et al.
# Submitted via: dBpowerAMP V12.0
#
DISCID=2e10d316
DTITLE=Vicente Fernández - Lo mejor
DYEAR=1900
DGENRE=Rancheras
TTITLE0=Lastima que seas ajena
TTITLE1=Me voy a quitar del medio
TTITLE2=No lo puedo creer
TTITLE3=Perdón (con Alejandro Fernández)
TTITLE4=Bohemio de afición
TTITLE5=Aunque mal paguen ellas (Con Roberto Carlos)
TTITLE6=Entre el amor y yo
TTITLE7=Sublime mujer
TTITLE8=Aunque me duela el alma
TTITLE9=Mujeres divinas
TTITLE10=La ley del monte
TTITLE11=Por tu maldito amor
TTITLE12=Volver, volver
TTITLE13=Cuando yo quería ser grande
TTITLE14=El tahuir
TTITLE15=Aquí el que mando soy yo
TTITLE16=De 7 a 9
TTITLE17=Miseria
TTITLE18=A escondidas
TTITLE19=Las llaves de mi alma
TTITLE20=Si te vas no hay lio
TTITLE21=Mi fiel compañera
EXTD=
EXTT0=
EXTT1=
EXTT2=
EXTT3=
EXTT4=
EXTT5=
EXTT6=
EXTT7=
EXTT8=
EXTT9=
EXTT10=
EXTT11=
EXTT12=
EXTT13=
EXTT14=
EXTT15=
EXTT16=
EXTT17=
EXTT18=
EXTT19=
EXTT20=
EXTT21=
PLAYORDER=
